<svg width="400" height="400" viewBox="0 0 400 400" fill="none" xmlns="http://www.w3.org/2000/svg">
  <rect width="400" height="400" fill="#3A86FF"/>
  <circle cx="200" cy="200" r="150" fill="#FFFFFF" fill-opacity="0.1"/>
  <path d="M200 120C200 109.954 208.954 100 220 100H240C251.046 100 260 108.954 260 120V140H280C291.046 140 300 148.954 300 160V180C300 191.046 291.046 200 280 200H260V220C260 231.046 251.046 240 240 240H220C208.954 240 200 231.046 200 220V200H180C168.954 200 160 191.046 160 180V160C160 148.954 168.954 140 180 140H200V120Z" fill="#FFFFFF" fill-opacity="0.3"/>
  <rect x="100" y="260" width="200" height="30" rx="15" fill="#FFFFFF" fill-opacity="0.2"/>
  <rect x="100" y="300" width="160" height="30" rx="15" fill="#FFFFFF" fill-opacity="0.2"/>
  <rect x="150" y="340" width="100" height="30" rx="15" fill="#FFFFFF" fill-opacity="0.2"/>
  <circle cx="320" cy="80" r="30" fill="#FF006E" fill-opacity="0.6"/>
  <circle cx="80" cy="280" r="40" fill="#FFBE0B" fill-opacity="0.6"/>
  <circle cx="340" cy="320" r="20" fill="#8338EC" fill-opacity="0.6"/>
  <path d="M160 120C160 114.477 164.477 110 170 110H190C195.523 110 200 114.477 200 120V130H210C215.523 130 220 134.477 220 140V160C220 165.523 215.523 170 210 170H200V180C200 185.523 195.523 190 190 190H170C164.477 190 160 185.523 160 180V170H150C144.477 170 140 165.523 140 160V140C140 134.477 144.477 130 150 130H160V120Z" fill="#FFFFFF" fill-opacity="0.5"/>
  <path d="M280 300C280 294.477 284.477 290 290 290H310C315.523 290 320 294.477 320 300V310H330C335.523 310 340 314.477 340 320V340C340 345.523 335.523 350 330 350H320V360C320 365.523 315.523 370 310 370H290C284.477 370 280 365.523 280 360V350H270C264.477 350 260 345.523 260 340V320C260 314.477 264.477 310 270 310H280V300Z" fill="#FFFFFF" fill-opacity="0.5"/>
</svg> 